<svg xmlns="http://www.w3.org/2000/svg" xml:space="preserve" style="enable-background:new 0 0 200 200" viewBox="0 0 200 200">
  <g clip-path="url(#c)">
    <linearGradient id="a" x1="31.7" x2="168.3" y1="-18.3" y2="218.3" gradientUnits="userSpaceOnUse">
      <stop offset="0" style="stop-color:#36f"/>
      <stop offset="1" style="stop-color:#001194"/>
    </linearGradient>
    <path d="M0 0h200v200H0z" style="fill:url(#a)"/>
    <linearGradient id="b" x1="156.62" x2="51" y1="116.33" y2="55.35" gradientUnits="userSpaceOnUse">
      <stop offset="0" style="stop-color:#cb6828"/>
      <stop offset="1" style="stop-color:#ffb815"/>
    </linearGradient>
    <path d="M57.55 107.29c3.5-2.15 7.86-4.84 15.93-4.84s12.43 2.68 15.93 4.84c3.02 1.86 5.4 3.32 10.59 3.32 5.19 0 7.57-1.47 10.59-3.32 3.5-2.15 7.86-4.84 15.93-4.84s12.43 2.68 15.93 4.84c3.02 1.86 5.4 3.32 10.59 3.32 3.6 0 5.85-.71 7.9-1.76a62.4 62.4 0 1 0-121.87.01 16.05 16.05 0 0 0 7.89 1.76c5.18-.01 7.57-1.47 10.59-3.33z" style="fill:url(#b)"/>
    <path d="M153.04 117.55c-8.07 0-12.43-2.68-15.93-4.84-3.02-1.86-5.4-3.32-10.59-3.32-5.19 0-7.57 1.47-10.59 3.32-3.5 2.15-7.86 4.84-15.93 4.84s-12.43-2.68-15.93-4.84c-3.02-1.86-5.4-3.32-10.59-3.32s-7.57 1.47-10.59 3.32c-3.5 2.15-7.86 4.84-15.93 4.84s-12.43-2.68-15.93-4.84c-3.02-1.86-5.4-3.32-10.59-3.32v-10.2c8.07 0 12.43 2.68 15.93 4.84 3.02 1.86 5.4 3.32 10.59 3.32s7.57-1.47 10.59-3.32c3.5-2.15 7.86-4.84 15.93-4.84s12.43 2.68 15.93 4.84c3.02 1.86 5.4 3.32 10.59 3.32 5.19 0 7.57-1.47 10.59-3.32 3.5-2.15 7.86-4.84 15.93-4.84s12.43 2.68 15.93 4.84c3.02 1.86 5.4 3.32 10.59 3.32s7.57-1.47 10.59-3.32c3.5-2.15 7.86-4.84 15.93-4.84v10.2c-5.19 0-7.57 1.47-10.59 3.32-3.5 2.16-7.86 4.84-15.93 4.84zm0 26.11c-8.07 0-12.43-2.68-15.93-4.84-3.02-1.86-5.4-3.32-10.59-3.32-5.19 0-7.57 1.47-10.59 3.32-3.5 2.15-7.86 4.84-15.93 4.84s-12.43-2.68-15.93-4.84c-3.02-1.86-5.4-3.32-10.59-3.32s-7.57 1.47-10.59 3.32c-3.5 2.15-7.86 4.84-15.93 4.84s-12.43-2.68-15.93-4.84c-3.02-1.86-5.4-3.32-10.59-3.32v-10.2c8.07 0 12.43 2.68 15.93 4.84 3.02 1.86 5.4 3.32 10.59 3.32s7.57-1.47 10.59-3.32c3.5-2.15 7.86-4.84 15.93-4.84s12.43 2.68 15.93 4.84c3.02 1.86 5.4 3.32 10.59 3.32 5.19 0 7.57-1.47 10.59-3.32 3.5-2.15 7.86-4.84 15.93-4.84s12.43 2.68 15.93 4.84c3.02 1.86 5.4 3.32 10.59 3.32s7.57-1.47 10.59-3.32c3.5-2.15 7.86-4.84 15.93-4.84v10.2c-5.19 0-7.57 1.47-10.59 3.32-3.5 2.15-7.86 4.84-15.93 4.84z" style="fill:#fff"/>
  </g>
  <defs>
    <clipPath id="c">
      <rect width="200" height="200" rx="100" fill="#fff" />
    </clipPath>
  </defs>
</svg>
