<svg xmlns="http://www.w3.org/2000/svg" xmlns:xlink="http://www.w3.org/1999/xlink" xml:space="preserve" id="Layer_1" x="0" y="0" style="enable-background:new 0 0 200 200" version="1.1" viewBox="0 0 200 200">
  <style>
    .st2{fill:#fff}
  </style>
  <g clip-path="url(#b)">
    <linearGradient id="SVGID_1_" x1="200" x2="0" y1="200" y2="0" gradientUnits="userSpaceOnUse">
      <stop offset="0" style="stop-color:#066"/>
      <stop offset="1" style="stop-color:#62ded1"/>
    </linearGradient>
    <path d="M0 0h200v200H0z" style="fill:url(#SVGID_1_)"/>
    <defs>
      <path id="SVGID_00000012436947730788261570000014371637683000615862_" d="M74.2 41.9h51.6a32.3 32.3 0 0 1 32.3 32.3v51.6a32.3 32.3 0 0 1-32.3 32.3H74.2a32.3 32.3 0 0 1-32.3-32.3V74.2a32.3 32.3 0 0 1 32.3-32.3z"/>
    </defs>
    <clipPath id="SVGID_00000042725156353477628320000003943548526777397633_">
      <use xlink:href="#SVGID_00000012436947730788261570000014371637683000615862_" style="overflow:visible"/>
    </clipPath>
    <g style="clip-path:url(#SVGID_00000042725156353477628320000003943548526777397633_)">
      <path d="M98.9 150a4 4 0 0 1-3.7-2.4c-4-8.7-6.4-18-7.1-27.5a4 4 0 0 1 3.7-4.3 4 4 0 0 1 4.3 3.7 71 71 0 0 0 6.4 24.8 4 4 0 0 1-3.6 5.6zm68.9 44.3a79.5 79.5 0 0 1-61.3-28.8 4 4 0 1 1 6.2-5 72.2 72.2 0 1 0-3.6-87.9 4 4 0 0 1-5.6 1 4 4 0 0 1-1-5.7 80.2 80.2 0 1 1 65.3 126.4z" class="st2"/>
      <path d="M168 156.3a42.2 42.2 0 1 1 .1-84.4 42.2 42.2 0 0 1-.1 84.4zm0-76.3a34.2 34.2 0 1 0 0 68.4 34.2 34.2 0 0 0 0-68.4z" class="st2"/>
      <path d="M168.1 175.2a61.8 61.8 0 0 1-61.7-66.1 4 4 0 0 1 8 .5 53.8 53.8 0 0 0 99.8 31.9 54 54 0 0 0-91.9-56.6 4 4 0 0 1-6.8-4.2 61.6 61.6 0 0 1 85.2-20.2 62 62 0 0 1-32.6 114.7zM32 329.9a81.9 81.9 0 0 1 0-163.6 81.9 81.9 0 0 1 0 163.6zm0-152.2a70.5 70.5 0 1 0 .2 141 70.5 70.5 0 0 0-.2-141z" class="st2"/>
      <path d="M32.4 310.9a63.8 63.8 0 1 1 .1-127.6 63.8 63.8 0 0 1-.1 127.6zm0-116a52.4 52.4 0 1 0 0 104.7 52.4 52.4 0 0 0 0-104.8z" class="st2"/>
      <path d="M32.2 367.9A120 120 0 0 1-80.4 206.6a119 119 0 0 1 69-70.1A85.2 85.2 0 0 1 103.4 13.2 120 120 0 0 1 276.8 64a120 120 0 0 1-126 168.7A120.1 120.1 0 0 1 32.2 367.9zM54.5 9a73.6 73.6 0 0 0-52 126 5.7 5.7 0 0 1-2.3 9.5 108.8 108.8 0 0 0-69.9 66 108.5 108.5 0 1 0 208 16.2 5.7 5.7 0 0 1 5.6-6.8 108.5 108.5 0 1 0-37.4-195 5.7 5.7 0 0 1-6.7-.2A73.4 73.4 0 0 0 54.5 9z" class="st2"/>
      <path d="M54.5 139.5a56.6 56.6 0 0 1-40.4-96.7 56.5 56.5 0 0 1 40-17h.4a56.5 56.5 0 0 1 55.2 43.5 4 4 0 1 1-7.8 1.9 48.8 48.8 0 0 0-47.4-37.3h-.3A48.5 48.5 0 0 0 5.7 83a48.9 48.9 0 0 0 83.6 34 4 4 0 0 1 5.6 5.6 56.7 56.7 0 0 1-40.4 16.9z" class="st2"/>
      <path d="M54.4 63.5a19.1 19.1 0 1 1 0 38.2 19.1 19.1 0 0 1 0-38.2m0-7.4a26.5 26.5 0 1 0 0 53 26.5 26.5 0 0 0 0-53z" class="st2"/>
      <path d="M54.4 125a42.4 42.4 0 1 1 42.4-44 4 4 0 0 1-8 .3 34.5 34.5 0 0 0-62.8-18A34.4 34.4 0 0 0 83 102a4 4 0 1 1 6.6 4.5A42.5 42.5 0 0 1 54.4 125z" class="st2"/>
    </g>
    <path d="M125.8 162.1H74.2c-20 0-36.3-16.3-36.3-36.3V74.2c0-20 16.3-36.3 36.3-36.3h51.6c20 0 36.3 16.3 36.3 36.3v51.6c0 20-16.3 36.3-36.3 36.3zM74.2 46a28.3 28.3 0 0 0-28.3 28.3v51.6a28.3 28.3 0 0 0 28.3 28.3h51.6a28.3 28.3 0 0 0 28.3-28.3V74.2a28.3 28.3 0 0 0-28.3-28.3H74.2z" class="st2"/>
  </g>
  <defs>
    <clipPath id="b">
      <rect width="200" height="200" rx="100" fill="#fff" />
    </clipPath>
  </defs>
</svg>
